<svg width="208" height="50" viewBox="0 0 208 50" fill="none" xmlns="http://www.w3.org/2000/svg">
    <rect x="5" y="5" width="40" height="40" rx="4" fill="#000666"/>
    <path
        d="M18 31V24H20V31H18ZM24 31V24H26V31H24ZM15 35V33H35V35H15ZM30 31V24H32V31H30ZM15 22V20L25 15L35 20V22H15ZM19.45 20H25H30.55H19.45ZM19.45 20H30.55L25 17.25L19.45 20Z"
        fill="white"/>
    <path
        d="M75.018 36.264L61.191 16.299L61.257 34.416L63.732 36H58.617L60.102 33.888L60.531 15.606L58.419 14.22H62.775L75.381 32.436L75.315 15.738L72.84 14.22H77.625L76.47 16.266L75.975 36.264H75.018ZM91.1353 36.132C90.8053 35.307 90.5743 34.284 90.4753 33.162C88.8913 34.482 86.8783 35.736 85.3273 36.132C82.4233 36.132 81.3013 34.218 81.3013 32.535C81.3013 29.334 84.9973 28.113 90.4753 27.816V25.77C90.4753 22.239 89.5843 20.721 87.1423 20.721C86.6803 20.721 86.3503 20.721 85.9873 20.754L83.1163 23.889L82.0273 21.975C84.1723 20.589 86.2843 19.698 88.3303 19.698C91.1023 19.698 92.6863 21.513 92.6863 24.912V34.119L94.6333 35.307L91.1353 36.132ZM83.5783 32.04C83.5783 33.294 84.2713 34.746 86.0203 34.746C86.9443 34.746 88.5613 33.855 90.4753 32.469V28.872C88.3963 28.872 86.6143 28.938 84.9973 29.235C84.1393 29.829 83.5783 30.918 83.5783 32.04ZM103.809 43.425C99.6185 43.425 97.2425 41.181 97.2425 38.937C97.2425 37.089 98.8595 35.406 100.311 34.713C99.5855 34.251 99.1235 33.624 98.8265 32.733C99.4535 31.908 100.41 31.083 101.4 30.357C99.5195 29.565 98.1995 27.717 98.1995 25.473C98.1995 23.658 99.0245 22.239 100.806 20.952C101.994 20.094 103.116 19.698 104.337 19.698C105.426 19.698 106.416 20.028 107.241 20.589L111.894 19.83L111.531 21.348L108.033 21.216C108.957 22.173 109.518 23.493 109.518 25.044C109.518 26.892 108.693 28.377 106.878 29.631C105.756 30.39 104.667 30.786 103.446 30.786C102.951 30.786 102.456 30.72 101.994 30.588C101.466 31.05 101.037 31.413 100.608 31.842C101.103 32.997 102.093 33.426 105.294 33.888C109.452 34.482 111.267 35.802 111.267 38.046C111.267 41.115 107.802 43.425 103.809 43.425ZM98.8925 38.442C98.8925 40.686 101.169 42.105 105.162 42.105C106.482 42.105 107.736 41.907 108.825 41.379C109.254 40.62 109.551 39.927 109.551 39.069C109.551 37.254 108.033 36.396 104.304 35.868C102.786 35.637 101.664 35.406 100.773 34.977C99.5195 36.066 98.8925 37.32 98.8925 38.442ZM100.278 24.747C100.278 27.618 102.027 29.697 104.502 29.697C105.129 29.697 105.756 29.565 106.35 29.301C107.109 28.047 107.472 26.892 107.472 25.671C107.472 22.899 105.624 20.754 103.347 20.754C102.753 20.754 102.126 20.886 101.499 21.117C100.641 22.305 100.278 23.46 100.278 24.747ZM123.957 36.132C123.627 35.307 123.396 34.284 123.297 33.162C121.713 34.482 119.7 35.736 118.149 36.132C115.245 36.132 114.123 34.218 114.123 32.535C114.123 29.334 117.819 28.113 123.297 27.816V25.77C123.297 22.239 122.406 20.721 119.964 20.721C119.502 20.721 119.172 20.721 118.809 20.754L115.938 23.889L114.849 21.975C116.994 20.589 119.106 19.698 121.152 19.698C123.924 19.698 125.508 21.513 125.508 24.912V34.119L127.455 35.307L123.957 36.132ZM116.4 32.04C116.4 33.294 117.093 34.746 118.842 34.746C119.766 34.746 121.383 33.855 123.297 32.469V28.872C121.218 28.872 119.436 28.938 117.819 29.235C116.961 29.829 116.4 30.918 116.4 32.04ZM136.044 36H131.292L132.348 34.053V21.876L131.127 20.556L134.328 19.731C134.493 21.084 134.559 22.503 134.592 23.922C135.879 22.041 137.529 20.358 138.849 19.698C139.74 19.698 140.4 19.896 140.994 20.259L140.631 22.305C139.476 21.744 139.014 21.645 138.453 21.645C137.397 21.645 135.978 22.833 134.592 24.813V26.034V35.043L136.044 36ZM142.87 38.376C144.982 36.462 145.543 34.614 145.543 31.215V15.375L143.398 14.22H149.404L148.051 16.266L148.018 23.361V31.578C148.018 33.822 147.589 35.241 146.962 36.198C145.939 36.924 144.586 37.749 143.002 38.574L142.87 38.376ZM162.942 36.132C162.612 35.307 162.381 34.284 162.282 33.162C160.698 34.482 158.685 35.736 157.134 36.132C154.23 36.132 153.108 34.218 153.108 32.535C153.108 29.334 156.804 28.113 162.282 27.816V25.77C162.282 22.239 161.391 20.721 158.949 20.721C158.487 20.721 158.157 20.721 157.794 20.754L154.923 23.889L153.834 21.975C155.979 20.589 158.091 19.698 160.137 19.698C162.909 19.698 164.493 21.513 164.493 24.912V34.119L166.44 35.307L162.942 36.132ZM155.385 32.04C155.385 33.294 156.078 34.746 157.827 34.746C158.751 34.746 160.368 33.855 162.282 32.469V28.872C160.203 28.872 158.421 28.938 156.804 29.235C155.946 29.829 155.385 30.918 155.385 32.04ZM175.161 36H170.277L171.333 34.053V21.876L170.112 20.556L173.313 19.698C173.445 20.754 173.511 21.843 173.544 22.965C175.26 21.579 177.174 20.424 179.187 19.698C182.619 19.698 183.972 21.282 183.972 24.879V35.142L185.424 36H180.705L181.761 34.317V25.737C181.761 22.569 181.035 21.051 178.758 21.051C177.636 21.051 175.59 22.272 173.577 23.658V26.034V35.01L175.161 36Z"
        fill="#1E3A8A"/>
</svg>
